<svg xmlns="http://www.w3.org/2000/svg" width="50" height="50" viewBox="0 0 50 50">
    <g fill="none" fill-rule="evenodd">
        <path fill="#E1E2D8" d="M9.926 10.43c13.452-.573 23.957-.573 31.516 0 2.51 5.968 4.865 12.627 2.264 16.052-14.371-1.206-32.403 0-35.376 0-2.66-1.247-2.128-6.598 1.596-16.053z"/>
        <path fill="#333" d="M34.043 42.855v-9.292c0-.63-.535-1.17-1.2-1.17h-14.35c-.663 0-1.2.54-1.2 1.17v9.292h-6.006V28.068c1.085-.271 2.026-.901 2.72-1.711.933 1.08 2.32 1.801 3.888 1.801 1.567 0 2.953-.721 3.887-1.801.933 1.08 2.318 1.801 3.888 1.801 1.565 0 2.95-.721 3.883-1.801.934 1.08 2.32 1.801 3.887 1.801 1.567 0 2.953-.721 3.887-1.801.693.81 1.633 1.44 2.72 1.711v14.787h-6.004zm-14.351 0h11.955v-8.12H19.692v8.12zM7.907 24.735c-.279-.272-.587-.812-.49-1.443.271-1.894 2.17-9.64 2.155-9.64.658-1.715 1.99-2.345 3.236-2.705v12.165c0 1.441-1.206 2.703-2.688 2.703-.833 0-1.68-.45-2.213-1.08zm7.296-13.968h5.38v12.345c0 1.441-1.206 2.703-2.688 2.703-1.485 0-2.692-1.262-2.692-2.703V10.767zm7.777 0h5.378v12.255c0 .09-.005.09-.005.09h.002c-.008 1.441-1.208 2.703-2.685 2.703-1.485 0-2.69-1.262-2.69-2.703V10.767zm7.773 0h5.375v12.345c0 1.441-1.205 2.703-2.688 2.703-1.477 0-2.673-1.262-2.687-2.703V10.767zm7.77.18c1.245.271 2.564.99 3.185 2.521.019.092 1.935 7.93 2.207 9.824.098.631-.21 1.171-.488 1.443-.534.63-1.382 1.08-2.214 1.08-1.481 0-2.69-1.262-2.69-2.703V10.947zm6.61 31.908h-2.69V27.977c1.079-.18 2.077-.81 2.797-1.62.853-.992 1.227-2.255 1.05-3.425-.288-1.984-2.173-9.732-2.307-10.182-1.111-2.795-3.746-4.417-7.23-4.417H14.578c-.185 0-.361.09-.543.09h-.085c-3.163.18-5.562 1.714-6.653 4.505-.08.272-1.965 8.02-2.252 10.004-.178 1.17.195 2.433 1.047 3.425.721.81 1.72 1.44 2.798 1.62v14.878H6.2a1.198 1.198 0 1 0 0 2.397h38.933a1.199 1.199 0 1 0 0-2.397z"/>
    </g>
</svg>
