<svg xmlns="http://www.w3.org/2000/svg" width="22" height="22" viewBox="0 0 22 22">
    <path fill="#58595C" fill-rule="evenodd" d="M7.923 8.873a.47.47 0 0 1 .085.931l-.085.008H6.111v7.51h9.778v-7.51h-1.812a.47.47 0 0 1-.085-.931l.085-.008h1.49c.673 0 1.226.492 1.293 1.12l.007.127v6.894c0 .645-.512 1.176-1.168 1.24l-.133.006H6.434c-.674 0-1.227-.491-1.294-1.12l-.007-.126V10.12c0-.646.512-1.176 1.168-1.24l.133-.007h1.49zM11 4.398l.093.009c.092.018.18.061.253.131l2.074 2.007a.466.466 0 0 1 0 .67.497.497 0 0 1-.692 0L11.39 5.919l.001 6.474a.391.391 0 1 1-.782 0V5.92L9.271 7.215a.497.497 0 0 1-.692 0 .466.466 0 0 1 0-.67l2.074-2.007a.496.496 0 0 1 .346-.14z"/>
</svg>
